<svg width="22" height="30" viewBox="0 0 22 30" fill="none" xmlns="http://www.w3.org/2000/svg">
<g filter="url(#filter0_d)">
<path d="M5.58594 10.0625C5.19922 10.4492 5.19922 11.0938 5.58594 11.4805L13.9219 19.8594C14.3516 20.2461 14.9961 20.2461 15.3828 19.8594L16.3711 18.8711C16.7578 18.4844 16.7578 17.8398 16.3711 17.4102L9.75391 10.75L16.3711 4.13281C16.7578 3.70312 16.7578 3.05859 16.3711 2.67188L15.3828 1.68359C14.9961 1.29688 14.3516 1.29688 13.9219 1.68359L5.58594 10.0625Z" fill="#EFF3FB"/>
<path d="M5.58594 10.0625L6.29305 10.7696L6.29486 10.7678L5.58594 10.0625ZM5.58594 11.4805L6.29486 10.7752L6.29305 10.7734L5.58594 11.4805ZM13.9219 19.8594L13.213 20.5647L13.2324 20.5842L13.2529 20.6027L13.9219 19.8594ZM16.3711 17.4102L17.1144 16.7412L17.0979 16.7228L17.0805 16.7053L16.3711 17.4102ZM9.75391 10.75L9.0468 10.0429L8.34198 10.7477L9.04452 11.4548L9.75391 10.75ZM16.3711 4.13281L17.0782 4.83992L17.0968 4.82132L17.1144 4.80178L16.3711 4.13281ZM13.9219 1.68359L13.2529 0.9403L13.2324 0.958753L13.213 0.978307L13.9219 1.68359ZM4.87883 9.35539C4.10159 10.1326 4.10159 11.4103 4.87883 12.1876L6.29305 10.7734C6.29393 10.7743 6.29492 10.7754 6.29575 10.7767C6.29654 10.7779 6.29685 10.7787 6.29688 10.7788C6.2969 10.7788 6.29663 10.7781 6.29636 10.7767C6.29609 10.7753 6.2959 10.7735 6.2959 10.7715C6.2959 10.7695 6.29609 10.7677 6.29636 10.7662C6.29663 10.7649 6.2969 10.7642 6.29688 10.7642C6.29685 10.7643 6.29654 10.7651 6.29575 10.7663C6.29492 10.7675 6.29393 10.7687 6.29305 10.7696L4.87883 9.35539ZM4.87702 12.1858L13.213 20.5647L14.6308 19.1541L6.29486 10.7752L4.87702 12.1858ZM13.2529 20.6027C14.0415 21.3124 15.2934 21.363 16.0899 20.5665L14.6757 19.1523C14.6782 19.1497 14.6813 19.1481 14.6822 19.1477C14.6823 19.1477 14.6779 19.1494 14.6685 19.1494C14.6488 19.1494 14.6195 19.1419 14.5908 19.1161L13.2529 20.6027ZM16.0899 20.5665L17.0782 19.5782L15.664 18.164L14.6757 19.1523L16.0899 20.5665ZM17.0782 19.5782C17.8747 18.7817 17.8241 17.5298 17.1144 16.7412L15.6278 18.0791C15.6536 18.1078 15.6611 18.1371 15.6611 18.1567C15.6611 18.1662 15.6594 18.1706 15.6594 18.1705C15.6598 18.1696 15.6615 18.1665 15.664 18.164L17.0782 19.5782ZM17.0805 16.7053L10.4633 10.0452L9.04452 11.4548L15.6617 18.115L17.0805 16.7053ZM10.461 11.4571L17.0782 4.83992L15.664 3.42571L9.0468 10.0429L10.461 11.4571ZM17.1144 4.80178C17.8241 4.01317 17.8747 2.76126 17.0782 1.96477L15.664 3.37898C15.6615 3.37646 15.6598 3.37341 15.6594 3.37249C15.6594 3.37234 15.6611 3.37678 15.6611 3.38623C15.6611 3.40585 15.6536 3.4352 15.6278 3.46385L17.1144 4.80178ZM17.0782 1.96477L16.0899 0.976487L14.6757 2.3907L15.664 3.37898L17.0782 1.96477ZM16.0899 0.976487C15.2934 0.179995 14.0415 0.230556 13.2529 0.9403L14.5908 2.42689C14.6195 2.4011 14.6488 2.39355 14.6685 2.39355C14.6779 2.39355 14.6823 2.39531 14.6822 2.39525C14.6813 2.39488 14.6782 2.39322 14.6757 2.3907L16.0899 0.976487ZM13.213 0.978307L4.87702 9.35721L6.29486 10.7678L14.6308 2.38888L13.213 0.978307Z" fill="white"/>
</g>
<defs>
<filter id="filter0_d" x="0.295898" y="0.393555" width="21.3652" height="28.7559" filterUnits="userSpaceOnUse" color-interpolation-filters="sRGB">
<feFlood flood-opacity="0" result="BackgroundImageFix"/>
<feColorMatrix in="SourceAlpha" type="matrix" values="0 0 0 0 0 0 0 0 0 0 0 0 0 0 0 0 0 0 127 0"/>
<feOffset dy="4"/>
<feGaussianBlur stdDeviation="2"/>
<feColorMatrix type="matrix" values="0 0 0 0 0 0 0 0 0 0 0 0 0 0 0 0 0 0 0.25 0"/>
<feBlend mode="normal" in2="BackgroundImageFix" result="effect1_dropShadow"/>
<feBlend mode="normal" in="SourceGraphic" in2="effect1_dropShadow" result="shape"/>
</filter>
</defs>
</svg>
