<svg width="23" height="23" viewBox="0 0 23 23" fill="none" xmlns="http://www.w3.org/2000/svg">
<path d="M17.25 13.1172V14.1953C17.25 14.4918 16.9728 14.7344 16.6339 14.7344H12.7321V18.1484C12.7321 18.4449 12.4549 18.6875 12.1161 18.6875H10.8839C10.5451 18.6875 10.2679 18.4449 10.2679 18.1484V14.7344H6.36607C6.02723 14.7344 5.75 14.4918 5.75 14.1953V13.1172C5.75 12.8207 6.02723 12.5781 6.36607 12.5781H10.2679V9.16406C10.2679 8.86758 10.5451 8.625 10.8839 8.625H12.1161C12.4549 8.625 12.7321 8.86758 12.7321 9.16406V12.5781H16.6339C16.9728 12.5781 17.25 12.8207 17.25 13.1172ZM23 5.03125V20.8438C23 22.0342 21.8962 23 20.5357 23H2.46429C1.10379 23 0 22.0342 0 20.8438V5.03125C0 3.84082 1.10379 2.875 2.46429 2.875H4.92857V0.539062C4.92857 0.242578 5.2058 0 5.54464 0H7.59821C7.93705 0 8.21429 0.242578 8.21429 0.539062V2.875H14.7857V0.539062C14.7857 0.242578 15.0629 0 15.4018 0H17.4554C17.7942 0 18.0714 0.242578 18.0714 0.539062V2.875H20.5357C21.8962 2.875 23 3.84082 23 5.03125ZM20.5357 20.5742V7.1875H2.46429V20.5742C2.46429 20.7225 2.6029 20.8438 2.77232 20.8438H20.2277C20.3971 20.8438 20.5357 20.7225 20.5357 20.5742Z" fill="#2F1160"/>
</svg>
