<svg width="59" height="75" viewBox="0 0 59 75" fill="none" xmlns="http://www.w3.org/2000/svg">
<g filter="url(#filter0_d)">
<path d="M52.875 0H45.4375C44.8739 0 44.3334 0.234151 43.9349 0.650942C43.5364 1.06773 43.3125 1.63302 43.3125 2.22245V8.88982H36.9375V2.22245C36.9375 1.63302 36.7136 1.06773 36.3151 0.650942C35.9166 0.234151 35.3761 0 34.8125 0H24.1875C23.6239 0 23.0834 0.234151 22.6849 0.650942C22.2864 1.06773 22.0625 1.63302 22.0625 2.22245V8.88982H15.7008V2.22245C15.7008 1.63302 15.4769 1.06773 15.0784 0.650942C14.6799 0.234151 14.1394 0 13.5758 0H6.125C5.56141 0 5.02091 0.234151 4.6224 0.650942C4.22388 1.06773 4 1.63302 4 2.22245V26.6695L12.5 31.1144C12.5 37.8276 12.2955 44.3102 10.7455 53.3389H48.2545C46.7045 44.3102 46.5 37.7428 46.5 31.1144L55 26.6695V2.22245C55 1.63302 54.7761 1.06773 54.3776 0.650942C53.9791 0.234151 53.4386 0 52.875 0ZM33.75 40.0042H25.25V31.1144C25.25 29.9355 25.6978 28.8049 26.4948 27.9713C27.2918 27.1378 28.3728 26.6695 29.5 26.6695C30.6272 26.6695 31.7082 27.1378 32.5052 27.9713C33.3022 28.8049 33.75 29.9355 33.75 31.1144V40.0042ZM52.875 57.7838H6.125C5.56141 57.7838 5.02091 58.018 4.6224 58.4348C4.22388 58.8516 4 59.4168 4 60.0063V64.4512C4 65.0406 4.22388 65.6059 4.6224 66.0227C5.02091 66.4395 5.56141 66.6736 6.125 66.6736H52.875C53.4386 66.6736 53.9791 66.4395 54.3776 66.0227C54.7761 65.6059 55 65.0406 55 64.4512V60.0063C55 59.4168 54.7761 58.8516 54.3776 58.4348C53.9791 58.018 53.4386 57.7838 52.875 57.7838Z" fill="#2F1160"/>
</g>
<defs>
<filter id="filter0_d" x="0" y="0" width="59" height="74.6736" filterUnits="userSpaceOnUse" color-interpolation-filters="sRGB">
<feFlood flood-opacity="0" result="BackgroundImageFix"/>
<feColorMatrix in="SourceAlpha" type="matrix" values="0 0 0 0 0 0 0 0 0 0 0 0 0 0 0 0 0 0 127 0"/>
<feOffset dy="4"/>
<feGaussianBlur stdDeviation="2"/>
<feColorMatrix type="matrix" values="0 0 0 0 0 0 0 0 0 0 0 0 0 0 0 0 0 0 0.25 0"/>
<feBlend mode="normal" in2="BackgroundImageFix" result="effect1_dropShadow"/>
<feBlend mode="normal" in="SourceGraphic" in2="effect1_dropShadow" result="shape"/>
</filter>
</defs>
</svg>
