<svg width="425" height="78" viewBox="0 0 425 78" fill="none" xmlns="http://www.w3.org/2000/svg">
<path d="M-31.4798 53.927C-31.1792 53.3462 -30.6135 52.949 -29.9651 52.8635L203.795 22.0271C203.931 22.0091 204.069 22.0052 204.206 22.0155L415.222 37.8884C417.547 38.0632 417.744 41.398 415.456 41.8455L296.711 65.0783C294.966 65.4197 293.676 63.4854 294.663 62.0062L313.566 33.6516C313.845 33.2327 314.272 32.9345 314.761 32.8166L450.116 0.212978C450.678 0.0776602 451.27 0.191926 451.742 0.52635L481.157 21.4021C481.686 21.7772 482 22.385 482 23.0331V165C482 166.105 481.105 167 480 167H-86.7129C-88.2119 167 -89.1781 165.412 -88.4891 164.081L-31.4798 53.927Z" fill="#2F1160"/>
</svg>
