<svg width="24" height="24" viewBox="0 0 24 24" fill="none" xmlns="http://www.w3.org/2000/svg">
<path d="M22.92 17.8439L12.3932 22.4292C12.2691 22.4758 12.1354 22.4999 12.0003 22.4999C11.8652 22.4999 11.7315 22.4758 11.6073 22.4292L1.08002 17.8439C0.865735 17.7502 0.865735 17.5964 1.08002 17.5022L3.60109 16.4063C3.72543 16.3596 3.8593 16.3356 3.99457 16.3356C4.12985 16.3356 4.26371 16.3596 4.38806 16.4063L11.6073 19.5469C11.7314 19.5937 11.8651 19.6179 12.0003 19.6179C12.1354 19.6179 12.2692 19.5937 12.3932 19.5469L19.6125 16.4063C19.7368 16.3596 19.8705 16.3356 20.0057 16.3356C20.1409 16.3356 20.2747 16.3596 20.3989 16.4063L22.92 17.5045C23.137 17.5964 23.137 17.7502 22.92 17.8439ZM22.92 11.4441L20.3989 10.3458C20.2747 10.2992 20.1409 10.2751 20.0057 10.2751C19.8705 10.2751 19.7368 10.2992 19.6125 10.3458L12.3932 13.4902C12.269 13.5366 12.1354 13.5605 12.0003 13.5605C11.8652 13.5605 11.7316 13.5366 11.6073 13.4902L4.38806 10.3458C4.26371 10.2992 4.12985 10.2751 3.99457 10.2751C3.8593 10.2751 3.72543 10.2992 3.60109 10.3458L1.08002 11.4441C0.865735 11.5378 0.865735 11.692 1.08002 11.7867L11.6073 16.3711C11.7315 16.4177 11.8652 16.4418 12.0003 16.4418C12.1354 16.4418 12.2691 16.4177 12.3932 16.3711L22.92 11.7867C23.137 11.692 23.137 11.5383 22.92 11.4441ZM1.08002 6.11344L11.6068 10.3458C11.8594 10.4325 12.1401 10.4325 12.3927 10.3458L22.92 6.11344C23.1343 6.02625 23.1343 5.88422 22.92 5.7975L12.3927 1.56563C12.1403 1.47796 11.8592 1.47796 11.6068 1.56563L1.08002 5.7975C0.863056 5.88422 0.863056 6.02625 1.08002 6.11344Z" fill="#2F1160"/>
</svg>
