<svg width="21" height="21" viewBox="0 0 21 21" fill="none" xmlns="http://www.w3.org/2000/svg">
<path d="M15.75 10.1719V11.3203C15.75 11.591 15.4547 11.8125 15.0938 11.8125H5.90625C5.54531 11.8125 5.25 11.591 5.25 11.3203V10.1719C5.25 9.90117 5.54531 9.67969 5.90625 9.67969H15.0938C15.4547 9.67969 15.75 9.90117 15.75 10.1719ZM15.0938 13.125H5.90625C5.54531 13.125 5.25 13.3465 5.25 13.6172V14.7656C5.25 15.0363 5.54531 15.2578 5.90625 15.2578H15.0938C15.4547 15.2578 15.75 15.0363 15.75 14.7656V13.6172C15.75 13.3465 15.4547 13.125 15.0938 13.125ZM21 5.40996V19.0312C21 20.1182 19.8242 21 18.375 21H2.625C1.17578 21 0 20.1182 0 19.0312V1.96875C0 0.881836 1.17578 0 2.625 0H13.7867C14.4813 0 15.1484 0.20918 15.6406 0.57832L20.2289 4.01953C20.7211 4.38457 21 4.88906 21 5.40996ZM14 2.12871V5.25H18.1617L14 2.12871ZM18.375 19.0312V7.21875H12.6875C11.9602 7.21875 11.375 6.77988 11.375 6.23438V1.96875H2.625V19.0312H18.375Z" fill="#2F1160"/>
</svg>
