<svg width="28" height="23" viewBox="0 0 28 23" fill="none" xmlns="http://www.w3.org/2000/svg">
<path d="M27.7098 19.5714C27.7098 18.9464 27.192 18.4286 26.567 18.4286H1.42411C0.799107 18.4286 0.28125 18.9464 0.28125 19.5714V21.8571C0.28125 22.4821 0.799107 23 1.42411 23H26.567C27.192 23 27.7098 22.4821 27.7098 21.8571V19.5714ZM27.7098 10.4286C27.7098 9.80357 27.192 9.28571 26.567 9.28571H1.42411C0.799107 9.28571 0.28125 9.80357 0.28125 10.4286V12.7143C0.28125 13.3393 0.799107 13.8571 1.42411 13.8571H26.567C27.192 13.8571 27.7098 13.3393 27.7098 12.7143V10.4286ZM27.7098 1.28571C27.7098 0.660713 27.192 0.142857 26.567 0.142857H1.42411C0.799107 0.142857 0.28125 0.660713 0.28125 1.28571V3.57143C0.28125 4.19643 0.799107 4.71428 1.42411 4.71428H26.567C27.192 4.71428 27.7098 4.19643 27.7098 3.57143V1.28571Z" fill="#2F1160"/>
</svg>
