<svg width="19" height="26" viewBox="0 0 19 26" fill="none" xmlns="http://www.w3.org/2000/svg">
<path fill-rule="evenodd" clip-rule="evenodd" d="M15.8297 3.29121C13.4585 2.14276 10.6921 2.14276 8.32092 3.29121C6.28144 4.27901 4.71343 6.03078 3.95676 8.16681L3.59498 9.1881C2.73396 11.6187 2.73396 14.2713 3.59498 16.7019L3.95676 17.7232C4.71343 19.8592 6.28144 21.611 8.32092 22.5988C10.6921 23.7472 13.4585 23.7472 15.8297 22.5988C16.5707 22.2399 16.2011 21.1625 15.4116 20.9289C15.0606 20.8251 14.7161 20.6921 14.3816 20.5301C12.7791 19.754 11.5471 18.3776 10.9526 16.6993L10.6683 15.8968C9.99181 13.9871 9.99181 11.9029 10.6683 9.99314L10.9526 9.1907C11.5471 7.51239 12.7791 6.136 14.3816 5.35987C14.7161 5.19785 15.0606 5.06492 15.4116 4.96108C16.2011 4.72749 16.5706 3.6501 15.8297 3.29121Z" fill="#C2CCDE"/>
<path d="M8.32092 3.29121L9.19272 5.0912L8.32092 3.29121ZM3.95676 8.16681L2.07155 7.499L2.07155 7.499L3.95676 8.16681ZM3.59498 9.1881L5.48019 9.85592L3.59498 9.1881ZM3.59498 16.7019L5.48019 16.0341L3.59498 16.7019ZM3.95676 17.7232L2.07155 18.391H2.07155L3.95676 17.7232ZM8.32092 22.5988L7.44911 24.3988L8.32092 22.5988ZM14.3816 20.5301L15.2534 18.7301L14.3816 20.5301ZM10.9526 16.6993L12.8378 16.0315L10.9526 16.6993ZM10.6683 15.8968L8.78311 16.5647L10.6683 15.8968ZM10.6683 9.99314L12.5535 10.661L10.6683 9.99314ZM10.9526 9.1907L9.06737 8.52288L10.9526 9.1907ZM14.3816 5.35987L13.5097 3.55989L14.3816 5.35987ZM15.4116 20.9289L15.979 19.0111L15.4116 20.9289ZM9.19272 5.0912C11.0133 4.20943 13.1373 4.20943 14.9578 5.0912L16.7015 1.49122C13.7797 0.0760863 10.3709 0.0760863 7.44911 1.49122L9.19272 5.0912ZM5.84197 8.83463C6.42294 7.19461 7.62684 5.84962 9.19272 5.0912L7.44911 1.49122C4.93605 2.7084 3.00393 4.86695 2.07155 7.499L5.84197 8.83463ZM5.48019 9.85592L5.84197 8.83463L2.07155 7.499L1.70977 8.52028L5.48019 9.85592ZM5.48019 16.0341C4.77223 14.0355 4.77223 11.8545 5.48019 9.85592L1.70977 8.52028C0.695702 11.3829 0.695701 14.5071 1.70977 17.3697L5.48019 16.0341ZM5.84197 17.0554L5.48019 16.0341L1.70977 17.3697L2.07155 18.391L5.84197 17.0554ZM9.19272 20.7988C7.62684 20.0404 6.42294 18.6954 5.84197 17.0554L2.07155 18.391C3.00393 21.0231 4.93605 23.1816 7.44911 24.3988L9.19272 20.7988ZM14.9578 20.7988C13.1373 21.6806 11.0133 21.6806 9.19272 20.7988L7.44911 24.3988C10.3709 25.8139 13.7797 25.8139 16.7015 24.3988L14.9578 20.7988ZM15.979 19.0111C15.7319 18.938 15.4892 18.8443 15.2534 18.7301L13.5097 22.3301C13.9429 22.5399 14.3893 22.7121 14.8441 22.8467L15.979 19.0111ZM15.2534 18.7301C14.1245 18.1834 13.2566 17.2138 12.8378 16.0315L9.06736 17.3671C9.8376 19.5414 11.4337 21.3246 13.5097 22.3301L15.2534 18.7301ZM12.8378 16.0315L12.5535 15.229L8.78311 16.5647L9.06737 17.3671L12.8378 16.0315ZM12.5535 15.229C12.0301 13.7513 12.0301 12.1387 12.5535 10.661L8.78311 9.32532C7.95354 11.6671 7.95354 14.2228 8.78311 16.5647L12.5535 15.229ZM12.5535 10.661L12.8378 9.85852L9.06737 8.52288L8.78311 9.32532L12.5535 10.661ZM12.8378 9.85852C13.2566 8.67622 14.1245 7.70661 15.2534 7.15986L13.5097 3.55989C11.4337 4.56539 9.8376 6.34856 9.06737 8.52288L12.8378 9.85852ZM15.2534 7.15986C15.4892 7.04563 15.7319 6.95201 15.979 6.8789L14.8441 3.04327C14.3893 3.17783 13.9429 3.35007 13.5097 3.55989L15.2534 7.15986ZM15.979 6.8789C17.0736 6.55502 17.8433 5.6793 18.1171 4.72435C18.2597 4.22677 18.2961 3.60667 18.0644 2.97858C17.8199 2.31567 17.3302 1.79577 16.7015 1.49122L14.9578 5.0912C14.6996 4.9661 14.4416 4.71545 14.3115 4.3628C14.1943 4.04494 14.2278 3.77609 14.272 3.62191C14.3489 3.35378 14.539 3.13355 14.8441 3.04327L15.979 6.8789ZM16.7015 24.3988C17.3302 24.0942 17.8199 23.5743 18.0644 22.9114C18.2961 22.2833 18.2597 21.6632 18.1171 21.1656C17.8433 20.2107 17.0736 19.335 15.979 19.0111L14.8441 22.8467C14.539 22.7564 14.3489 22.5362 14.272 22.2681C14.2278 22.1139 14.1943 21.8451 14.3115 21.5272C14.4416 21.1746 14.6996 20.9239 14.9578 20.7988L16.7015 24.3988Z" fill="#C2CCDE"/>
</svg>
