<svg width="61" height="60" viewBox="0 0 61 60" fill="none" xmlns="http://www.w3.org/2000/svg">
<path fill-rule="evenodd" clip-rule="evenodd" d="M24.5304 39.1139C24.4515 39.1434 24.3727 39.173 24.2939 39.203L23.3761 39.5524C17.3619 41.8423 13.3871 47.6089 13.3871 54.0443C13.3871 56.1909 15.1272 57.9311 17.2738 57.9311H55.4128C57.5593 57.9311 59.2995 56.1909 59.2995 54.0443C59.2995 47.6089 55.3247 41.8423 49.3105 39.5524L48.3927 39.203C48.3139 39.173 48.2351 39.1434 48.1562 39.1139L41.3268 44.9883C38.4507 47.462 34.2359 47.462 31.3598 44.9883L24.5304 39.1139Z" fill="#C2CCDE" fill-opacity="0.25"/>
<path d="M24.2939 39.203L24.8991 40.7921L24.2939 39.203ZM24.5304 39.1139L25.6393 37.8247C25.1697 37.4209 24.5176 37.3042 23.9372 37.5203L24.5304 39.1139ZM23.3761 39.5524L22.7711 37.9632L23.3761 39.5524ZM49.3105 39.5524L48.7054 41.1416L49.3105 39.5524ZM48.3927 39.203L48.9977 37.6138L48.3927 39.203ZM48.1563 39.1139L48.7495 37.5203C48.169 37.3042 47.517 37.4209 47.0474 37.8247L48.1563 39.1139ZM41.3268 44.9883L40.2179 43.6991L41.3268 44.9883ZM31.3599 44.9883L30.251 46.2774L31.3599 44.9883ZM24.8991 40.7921C24.9738 40.7636 25.0487 40.7355 25.1236 40.7076L23.9372 37.5203C23.8544 37.5511 23.7716 37.5823 23.6889 37.6138L24.8991 40.7921ZM23.9812 41.1416L24.8991 40.7921L23.6889 37.6138L22.7711 37.9632L23.9812 41.1416ZM15.0876 54.0442C15.0876 48.3146 18.6265 43.1803 23.9812 41.1416L22.7711 37.9632C16.0974 40.5042 11.6866 46.9031 11.6866 54.0442H15.0876ZM17.2738 56.2306C16.0664 56.2306 15.0876 55.2517 15.0876 54.0442H11.6866C11.6866 57.13 14.1881 59.6315 17.2738 59.6315V56.2306ZM55.4128 56.2306H17.2738V59.6315H55.4128V56.2306ZM57.5991 54.0442C57.5991 55.2517 56.6202 56.2306 55.4128 56.2306V59.6315C58.4985 59.6315 61 57.13 61 54.0442H57.5991ZM48.7054 41.1416C54.0601 43.1803 57.5991 48.3146 57.5991 54.0442H61C61 46.9031 56.5893 40.5042 49.9155 37.9632L48.7054 41.1416ZM47.7876 40.7921L48.7054 41.1416L49.9155 37.9632L48.9977 37.6138L47.7876 40.7921ZM47.563 40.7076C47.638 40.7355 47.7129 40.7636 47.7876 40.7921L48.9977 37.6138C48.9151 37.5823 48.8323 37.5511 48.7495 37.5203L47.563 40.7076ZM47.0474 37.8247L40.2179 43.6991L42.4356 46.2774L49.2651 40.4031L47.0474 37.8247ZM40.2179 43.6991C37.9793 45.6245 34.7073 45.6245 32.4687 43.6991L30.251 46.2774C33.7647 49.2996 38.922 49.2996 42.4356 46.2774L40.2179 43.6991ZM32.4687 43.6991L25.6393 37.8247L23.4215 40.4031L30.251 46.2774L32.4687 43.6991Z" fill="#2F1160"/>
<path d="M38.0438 46.8435C38.0438 45.9045 37.2825 45.1431 36.3433 45.1431C35.4042 45.1431 34.6429 45.9045 34.6429 46.8435H38.0438ZM34.6429 57.9306C34.6429 58.8698 35.4042 59.6311 36.3433 59.6311C37.2825 59.6311 38.0438 58.8698 38.0438 57.9306H34.6429ZM34.6429 46.8435V57.9306H38.0438V46.8435H34.6429Z" fill="#2F1160"/>
<path d="M25.406 8.10647C30.7934 0.535938 41.8932 0.535938 47.2807 8.10647L55.8085 20.0898C58.9076 24.4447 58.1833 30.4893 54.1462 33.9617L41.3268 44.9883C38.4507 47.462 34.2359 47.462 31.3599 44.9883L18.5404 33.9617C14.5034 30.4893 13.779 24.4447 16.8782 20.0898L25.406 8.10647Z" fill="#C2CCDE" fill-opacity="0.25" stroke="#2F1160" stroke-width="4" stroke-linecap="round" stroke-linejoin="round"/>
<path fill-rule="evenodd" clip-rule="evenodd" d="M47.3679 9.3342C41.9375 1.82258 30.7492 1.82258 25.3189 9.3342L19.6951 17.1135C18.183 19.2049 17.5739 21.6892 17.8093 24.0866C22.7595 19.7488 29.2443 17.1194 36.3434 17.1194C43.4424 17.1194 49.9274 19.7488 54.8775 24.0866C55.1128 21.6892 54.5037 19.2049 52.9918 17.1135L47.3679 9.3342Z" fill="#C2CCDE" fill-opacity="0.25"/>
<path d="M25.3189 9.33418L26.6969 10.3304L25.3189 9.33418ZM47.3679 9.33418L48.746 8.33797L47.3679 9.33418ZM19.695 17.1135L18.3169 16.1172L19.695 17.1135ZM17.8093 24.0866L16.117 24.2528C16.1793 24.8872 16.5911 25.4335 17.1838 25.6679C17.7766 25.9024 18.4506 25.7856 18.93 25.3655L17.8093 24.0866ZM54.8775 24.0866L53.7567 25.3655C54.2362 25.7856 54.9102 25.9024 55.5029 25.6679C56.0957 25.4334 56.5075 24.8871 56.5698 24.2528L54.8775 24.0866ZM52.9918 17.1135L51.6137 18.1097L52.9918 17.1135ZM26.6969 10.3304C31.4485 3.75778 41.2383 3.75778 45.9898 10.3304L48.746 8.33797C42.6367 -0.112642 30.05 -0.112641 23.9408 8.33788L26.6969 10.3304ZM21.0731 18.1097L26.6969 10.3304L23.9408 8.33788L18.3169 16.1172L21.0731 18.1097ZM19.5016 23.9205C19.3053 21.9209 19.8127 19.853 21.0731 18.1097L18.3169 16.1172C16.5533 18.5567 15.8425 21.4574 16.117 24.2528L19.5016 23.9205ZM18.93 25.3655C23.582 21.2889 29.6722 18.8199 36.3434 18.8199V15.4189C28.8165 15.4189 21.9369 18.2085 16.6885 22.8078L18.93 25.3655ZM36.3434 18.8199C43.0146 18.8199 49.1048 21.2889 53.7567 25.3655L55.9982 22.8077C50.7499 18.2085 43.8703 15.4189 36.3434 15.4189V18.8199ZM51.6137 18.1097C52.874 19.8531 53.3814 21.9209 53.1851 23.9205L56.5698 24.2528C56.8442 21.4574 56.1334 18.5567 54.3698 16.1172L51.6137 18.1097ZM45.9898 10.3304L51.6137 18.1097L54.3698 16.1172L48.746 8.33797L45.9898 10.3304Z" fill="#2F1160"/>
<path d="M23.3351 20.2997L22.5477 18.7925C22.0036 19.0767 21.6549 19.6322 21.6355 20.2458L23.3351 20.2997ZM49.3517 20.2995L51.0513 20.2456C51.0318 19.632 50.6831 19.0766 50.139 18.7923L49.3517 20.2995ZM49.0635 23.5652L50.7275 23.9156L49.0635 23.5652ZM48.7996 24.8182L47.1356 24.4678L48.7996 24.8182ZM42.2324 33.4799L43.0192 34.9874L42.2324 33.4799ZM30.4543 33.4799L29.6676 34.9874L30.4543 33.4799ZM23.8872 24.8182L22.2232 25.1687L23.8872 24.8182ZM23.6232 23.5652L25.2872 23.2147L23.6232 23.5652ZM24.1224 21.8069C27.7756 19.8985 31.931 18.8187 36.3436 18.8187V15.4178C31.3696 15.4178 26.6753 16.6362 22.5477 18.7925L24.1224 21.8069ZM36.3436 18.8187C40.756 18.8187 44.9113 19.8984 48.5644 21.8067L50.139 18.7923C46.0115 16.6361 41.3172 15.4178 36.3436 15.4178V18.8187ZM50.7275 23.9156C50.9839 22.6985 51.09 21.4666 51.0513 20.2456L47.6521 20.3533C47.6822 21.3052 47.5995 22.2655 47.3995 23.2147L50.7275 23.9156ZM50.4635 25.1687L50.7275 23.9156L47.3995 23.2147L47.1356 24.4678L50.4635 25.1687ZM43.0192 34.9874C46.8435 32.9918 49.5744 29.3899 50.4635 25.1687L47.1356 24.4678C46.456 27.694 44.3687 30.447 41.4458 31.9723L43.0192 34.9874ZM29.6676 34.9874C33.8505 37.1702 38.8363 37.1702 43.0192 34.9874L41.4458 31.9723C38.2488 33.6407 34.438 33.6407 31.241 31.9723L29.6676 34.9874ZM22.2232 25.1687C23.1123 29.3899 25.8433 32.9918 29.6676 34.9874L31.241 31.9723C28.318 30.447 26.2307 27.694 25.5511 24.4678L22.2232 25.1687ZM21.9593 23.9156L22.2232 25.1687L25.5511 24.4678L25.2872 23.2147L21.9593 23.9156ZM21.6355 20.2458C21.5968 21.4668 21.7029 22.6986 21.9593 23.9156L25.2872 23.2147C25.0873 22.2656 25.0046 21.3053 25.0347 20.3535L21.6355 20.2458Z" fill="#2F1160"/>
<path fill-rule="evenodd" clip-rule="evenodd" d="M24.7915 38.7982C24.7547 38.8118 24.7179 38.8256 24.6811 38.8393L23.5306 39.2705C17.7363 41.4422 13.8973 46.9809 13.8973 53.1689C13.8973 55.2349 15.5722 56.9099 17.6383 56.9099H55.0484C57.1146 56.9099 58.7894 55.2349 58.7894 53.1689C58.7894 46.9809 54.9504 41.4422 49.1561 39.2705L48.0056 38.8393C47.9688 38.8256 47.932 38.8118 47.8952 38.7982L41.3665 44.326C38.4675 46.7806 34.2192 46.7806 31.3202 44.326L24.7915 38.7982Z" fill="#3A557C"/>
<path d="M25.3188 9.41127C30.7492 1.89966 41.9374 1.89966 47.3678 9.41127L55.2102 20.2592C58.3339 24.5802 57.6038 30.5778 53.5346 34.0232L41.3665 44.3261C38.4675 46.7806 34.2192 46.7806 31.3202 44.3261L19.152 34.0232C15.0828 30.5778 14.3527 24.5802 17.4765 20.2592L25.3188 9.41127Z" fill="#2F1160"/>
<path fill-rule="evenodd" clip-rule="evenodd" d="M47.0278 10.3544C41.5974 2.84282 30.4092 2.84282 24.9788 10.3544L19.3549 18.1337C17.8429 20.2251 17.2338 22.7094 17.4692 25.1069C22.4193 20.769 28.9042 18.1397 36.0033 18.1397C43.1023 18.1397 49.5873 20.769 54.5374 25.1069C54.7727 22.7094 54.1636 20.2251 52.6517 18.1337L47.0278 10.3544Z" fill="#3A557C"/>
<path fill-rule="evenodd" clip-rule="evenodd" d="M23.6348 20.9961C27.3678 19.166 31.5656 18.1385 36.0034 18.1385C40.7127 18.1385 45.1517 19.2956 49.0517 21.3409C49.0398 22.2062 48.9431 23.0751 48.7591 23.9354L48.5499 24.913C47.7662 28.5758 45.379 31.6931 42.0471 33.4046C38.4669 35.2437 34.2198 35.2437 30.6397 33.4046C27.3078 31.6931 24.9207 28.5758 24.1368 24.913L23.9277 23.9354C23.7191 22.9608 23.6228 21.9752 23.6348 20.9961Z" fill="#B9B7BD"/>
<path d="M28.6912 41.7762C28.9639 42.9234 24.3489 36.6184 18.0634 43.5704C13.46 54.2583 9.54372 59.6617 2.94534 52.4149C-3.65298 45.1681 0.717173 31.2511 17.2483 32.4237C20.4467 33.025 27.1302 35.2096 28.6912 41.7762Z" fill="#D8B89C"/>
<path d="M45.3009 23.9428C44.9061 23.6664 44.4375 23.4473 43.9217 23.2977C43.406 23.1481 42.8532 23.0712 42.2949 23.0712C41.7366 23.0712 41.1838 23.1481 40.6681 23.2977C40.1523 23.4473 39.6837 23.6664 39.2889 23.9428" stroke="#C2CCDE" stroke-width="4" stroke-linecap="round" stroke-linejoin="round"/>
<path d="M33.7606 23.7352C33.3461 23.5247 32.854 23.3577 32.3125 23.2438C31.7709 23.1299 31.1904 23.0712 30.6043 23.0712C30.0181 23.0712 29.4377 23.1299 28.8961 23.2438C28.3545 23.3577 27.8624 23.5247 27.448 23.7352" stroke="#C2CCDE" stroke-width="4" stroke-linecap="round" stroke-linejoin="round"/>
</svg>
