<svg width="24" height="19" viewBox="0 0 24 19" fill="none" xmlns="http://www.w3.org/2000/svg">
<path d="M21.9966 7.91667H20.0007V5.54167C20.0007 4.23047 19.1048 3.16667 18.0006 3.16667H11.3337L8.66695 0H2.00007C0.895863 0 0 1.0638 0 2.375V16.625C0 17.9362 0.895863 19 2.00007 19H18.6673C19.3548 19 19.9965 18.5794 20.3632 17.8818L23.6924 11.5484C24.5258 9.97005 23.5674 7.91667 21.9966 7.91667ZM2.00007 2.67188C2.00007 2.50859 2.11257 2.375 2.25007 2.375H7.83776L10.5045 5.54167H17.7506C17.8881 5.54167 18.0006 5.67526 18.0006 5.83854V7.91667H6.33354C5.63352 7.91667 4.9835 8.35208 4.62098 9.06458L2.00007 14.2203V2.67188ZM18.6673 16.625H3.0001L6.21687 10.2917H22.0007L18.6673 16.625Z" fill="#2F1160"/>
</svg>
