<svg width="62" height="63" viewBox="0 0 62 63" fill="none" xmlns="http://www.w3.org/2000/svg">
<path d="M48.1162 32.4857L52.3337 28.4236C53.591 27.2523 53.0047 25.1708 51.3557 24.7827L45.6097 23.3395L47.2295 17.7421C47.6872 16.1321 46.1446 14.6135 44.5091 15.0641L38.8232 16.6587L37.3573 11.0021C36.9693 9.40466 34.8305 8.82042 33.6588 10.0393L29.5325 14.222L25.4063 10.0394C24.2479 8.83432 22.1002 9.38643 21.7079 11.0022L20.2419 16.6588L14.5559 15.0642C12.92 14.6134 11.3779 16.1326 11.8355 17.7422L13.4553 23.3396L7.70934 24.7828C6.05955 25.171 5.47449 27.2529 6.73118 28.4236L10.9487 32.4857L6.73118 36.5476C5.47394 37.7189 6.06019 39.8004 7.70924 40.1886L13.4552 41.6318L11.8355 47.2291C11.3777 48.8391 12.9204 50.3577 14.5558 49.9072L20.2417 48.3126L21.7077 53.9691C22.1148 55.6457 24.2478 56.1369 25.4061 54.932L29.5325 50.78L33.6587 54.932C34.8052 56.1494 36.9593 55.6077 37.3572 53.9691L38.8232 48.3126L44.509 49.9072C46.1448 50.3579 47.687 48.8388 47.2294 47.2291L45.6096 41.6318L51.3556 40.1886C53.0053 39.8003 53.5903 37.7185 52.3337 36.5476L48.1162 32.4857V32.4857Z" fill="#563F7E" fill-opacity="0.69"/>
<path d="M42.2363 32.5782L45.1194 29.8014C45.9789 29.0007 45.5781 27.5778 44.4508 27.3125L40.5229 26.3259L41.6302 22.4996C41.9431 21.399 40.8886 20.3609 39.7705 20.6689L35.8837 21.7589L34.8816 17.8922C34.6164 16.8001 33.1543 16.4008 32.3533 17.234L29.5326 20.0932L26.712 17.234C25.9201 16.4103 24.4519 16.7877 24.1837 17.8922L23.1816 21.759L19.2947 20.669C18.1764 20.3608 17.1222 21.3993 17.4351 22.4997L18.5424 26.326L14.6144 27.3125C13.4866 27.5779 13.0867 29.0011 13.9458 29.8014L16.8289 32.5782L13.9458 35.3549C13.0863 36.1556 13.4871 37.5785 14.6143 37.8438L18.5423 38.8304L17.435 42.6567C17.1221 43.7573 18.1766 44.7954 19.2946 44.4874L23.1815 43.3973L24.1836 47.2641C24.4619 48.4102 25.9201 48.746 26.7118 47.9223L29.5326 45.0841L32.3533 47.9223C33.137 48.7545 34.6095 48.3842 34.8815 47.2641L35.8837 43.3973L39.7705 44.4874C40.8887 44.7955 41.943 43.757 41.6301 42.6567L40.5228 38.8304L44.4508 37.8438C45.5785 37.5784 45.9784 36.1553 45.1194 35.3549L42.2363 32.5782V32.5782Z" fill="#2F1160"/>
</svg>
