<svg width="70" height="64" viewBox="0 0 70 64" fill="none" xmlns="http://www.w3.org/2000/svg">
<g filter="url(#filter0_d)">
<path d="M64.0625 46.0117H11.75V2.30059C11.75 1.02951 10.883 0 9.8125 0H5.9375C4.86703 0 4 1.02951 4 2.30059V50.6129C4 53.1536 5.73527 55.2141 7.875 55.2141H64.0625C65.133 55.2141 66 54.1845 66 52.9135V48.3123C66 47.0412 65.133 46.0117 64.0625 46.0117ZM60.1875 4.60117H45.8912C43.3022 4.60117 42.0053 8.31805 43.8362 10.4921L47.7596 15.1508L38.875 25.7019L29.9904 15.1522C28.4767 13.3549 26.0233 13.3549 24.5109 15.1522L16.1929 25.0289C15.4361 25.9276 15.4361 27.3842 16.1929 28.2828L18.9321 31.5353C19.6889 32.4339 20.9156 32.4339 21.6724 31.5353L27.25 24.911L36.1346 35.4606C37.6483 37.258 40.1017 37.258 41.6141 35.4606L53.2391 21.6571L57.1626 26.3158C58.9935 28.4899 62.1238 26.9499 62.1238 23.8758V6.90176C62.125 5.63068 61.258 4.60117 60.1875 4.60117Z" fill="#2F1160"/>
</g>
<defs>
<filter id="filter0_d" x="0" y="0" width="70" height="63.2141" filterUnits="userSpaceOnUse" color-interpolation-filters="sRGB">
<feFlood flood-opacity="0" result="BackgroundImageFix"/>
<feColorMatrix in="SourceAlpha" type="matrix" values="0 0 0 0 0 0 0 0 0 0 0 0 0 0 0 0 0 0 127 0"/>
<feOffset dy="4"/>
<feGaussianBlur stdDeviation="2"/>
<feColorMatrix type="matrix" values="0 0 0 0 0 0 0 0 0 0 0 0 0 0 0 0 0 0 0.25 0"/>
<feBlend mode="normal" in2="BackgroundImageFix" result="effect1_dropShadow"/>
<feBlend mode="normal" in="SourceGraphic" in2="effect1_dropShadow" result="shape"/>
</filter>
</defs>
</svg>
