<svg width="139" height="132" viewBox="0 0 139 132" fill="none" xmlns="http://www.w3.org/2000/svg">
<g filter="url(#filter0_d)">
<path fill-rule="evenodd" clip-rule="evenodd" d="M56.68 79.7041C56.5106 79.7673 56.3413 79.831 56.1722 79.8953L54.2011 80.6457C41.2854 85.5635 32.7493 97.9473 32.7493 111.768C32.7493 116.378 36.4864 120.115 41.0963 120.115H123.001C127.611 120.115 131.348 116.378 131.348 111.768C131.348 97.9473 122.812 85.5635 109.896 80.6457L107.925 79.8953C107.756 79.8308 107.587 79.7673 107.417 79.7041L92.7509 92.3195C86.5744 97.632 77.5231 97.632 71.3466 92.3195L56.68 79.7041Z" fill="#C2CCDE" fill-opacity="0.25"/>
<path d="M56.1722 79.895L57.4717 83.3078L56.1722 79.895ZM56.68 79.7039L59.0614 76.9352C58.0529 76.0679 56.6526 75.8174 55.4061 76.2816L56.68 79.7039ZM54.2012 80.6455L52.9018 77.2327L54.2012 80.6455ZM109.896 80.6455L108.597 84.0583L109.896 80.6455ZM107.925 79.895L109.225 76.4822L107.925 79.895ZM107.418 79.7039L108.691 76.2816C107.445 75.8174 106.045 76.0679 105.036 76.9352L107.418 79.7039ZM92.7509 92.3193L90.3696 89.5506L92.7509 92.3193ZM71.3466 92.3193L68.9652 95.0877L71.3466 92.3193ZM57.4717 83.3078C57.6322 83.2467 57.7931 83.1862 57.9539 83.1263L55.4061 76.2816C55.2282 76.3477 55.0504 76.4147 54.8729 76.4822L57.4717 83.3078ZM55.5007 84.0583L57.4717 83.3078L54.8729 76.4822L52.9018 77.2327L55.5007 84.0583ZM36.4012 111.767C36.4012 99.4628 44.0011 88.4366 55.5007 84.0583L52.9018 77.2327C38.5698 82.6896 29.0975 96.4316 29.0975 111.767H36.4012ZM41.0963 116.463C38.5033 116.463 36.4012 114.361 36.4012 111.767H29.0975C29.0975 118.394 34.4695 123.766 41.0963 123.766V116.463ZM123.001 116.463H41.0963V123.766H123.001V116.463ZM127.696 111.767C127.696 114.361 125.594 116.463 123.001 116.463V123.766C129.628 123.766 135 118.394 135 111.767H127.696ZM108.597 84.0583C120.096 88.4366 127.696 99.4628 127.696 111.767H135C135 96.4316 125.528 82.6896 111.196 77.2327L108.597 84.0583ZM106.626 83.3078L108.597 84.0583L111.196 77.2327L109.225 76.4822L106.626 83.3078ZM106.144 83.1263C106.304 83.1862 106.465 83.2467 106.626 83.3078L109.225 76.4822C109.047 76.4147 108.869 76.3477 108.691 76.2816L106.144 83.1263ZM105.036 76.9352L90.3696 89.5506L95.1323 95.0877L109.799 82.4725L105.036 76.9352ZM90.3696 89.5506C85.5622 93.6856 78.5354 93.6856 73.7279 89.5506L68.9652 95.0877C76.511 101.578 87.5866 101.578 95.1323 95.0877L90.3696 89.5506ZM73.7279 89.5506L59.0614 76.9352L54.2987 82.4725L68.9652 95.0877L73.7279 89.5506Z" fill="#EFF3FB"/>
<path d="M85.7007 96.3037C85.7007 94.287 84.0657 92.6519 82.0488 92.6519C80.0319 92.6519 78.397 94.287 78.397 96.3037H85.7007ZM78.397 120.114C78.397 122.131 80.0319 123.766 82.0488 123.766C84.0657 123.766 85.7007 122.131 85.7007 120.114H78.397ZM78.397 96.3037V120.114H85.7007V96.3037H78.397Z" fill="#EFF3FB"/>
<path d="M58.5603 13.1141C70.1302 -3.14399 93.9674 -3.14399 105.537 13.1141L123.851 38.8489C130.506 48.2012 128.951 61.1823 120.281 68.6395L92.7509 92.3196C86.5745 97.6321 77.5231 97.6321 71.3466 92.3196L43.8162 68.6395C35.1466 61.1823 33.5909 48.2012 40.2465 38.8489L58.5603 13.1141Z" fill="#C2CCDE" fill-opacity="0.25"/>
<path fill-rule="evenodd" clip-rule="evenodd" d="M105.725 15.7504C94.0625 -0.381158 70.0352 -0.381158 58.3734 15.7504L46.2959 32.4568C43.0487 36.9481 41.7406 42.2833 42.2462 47.432C52.8768 38.1162 66.8034 32.4696 82.0489 32.4696C97.2943 32.4696 111.221 38.1162 121.852 47.432C122.357 42.2833 121.049 36.9481 117.802 32.4568L105.725 15.7504Z" fill="#C2CCDE" fill-opacity="0.25"/>
<path d="M58.3734 15.7505L61.3328 17.8899L58.3734 15.7505ZM105.725 15.7505L108.684 13.6111L105.725 15.7505ZM46.2959 32.4569L43.3363 30.3173L46.2959 32.4569ZM42.2462 47.4321L38.612 47.7891C38.7456 49.1514 39.6301 50.3245 40.9029 50.8279C42.1759 51.3315 43.6235 51.0808 44.653 50.1786L42.2462 47.4321ZM121.852 47.4321L119.445 50.1786C120.474 51.0808 121.922 51.3315 123.195 50.8279C124.468 50.3243 125.352 49.1512 125.486 47.7889L121.852 47.4321ZM117.802 32.4569L114.843 34.5963L117.802 32.4569ZM61.3328 17.8899C71.537 3.77491 92.5609 3.77491 102.765 17.8899L108.684 13.6111C95.5641 -4.537 68.5336 -4.537 55.4139 13.6109L61.3328 17.8899ZM49.2553 34.5963L61.3328 17.8899L55.4139 13.6109L43.3363 30.3173L49.2553 34.5963ZM45.8805 47.0753C45.4589 42.7811 46.5486 38.3402 49.2553 34.5963L43.3363 30.3173C39.5488 35.5564 38.0224 41.7856 38.612 47.7891L45.8805 47.0753ZM44.653 50.1786C54.6432 41.4239 67.7223 36.1215 82.0489 36.1215V28.8178C65.8846 28.8178 51.1105 34.8087 39.8393 44.6857L44.653 50.1786ZM82.0489 36.1215C96.3755 36.1215 109.455 41.4239 119.445 50.1786L124.258 44.6856C112.987 34.8087 98.2133 28.8178 82.0489 28.8178V36.1215ZM114.843 34.5963C117.549 38.3403 118.639 42.7811 118.217 47.0753L125.486 47.7889C126.075 41.7857 124.549 35.5564 120.761 30.3173L114.843 34.5963ZM102.765 17.8899L114.843 34.5963L120.761 30.3173L108.684 13.6111L102.765 17.8899Z" fill="#EFF3FB"/>
<path d="M54.1131 39.2995L52.4222 36.0627C51.2536 36.6731 50.5048 37.866 50.4632 39.1837L54.1131 39.2995ZM109.985 39.2991L113.635 39.1834C113.593 37.8656 112.844 36.6728 111.676 36.0624L109.985 39.2991ZM109.366 46.3123L112.939 47.0649L109.366 46.3123ZM108.799 49.0033L105.226 48.2507L108.799 49.0033ZM94.6959 67.6046L96.3854 70.8421L94.6959 67.6046ZM69.4018 67.6046L67.7125 70.8421L69.4018 67.6046ZM55.2987 49.0033L51.7252 49.756L55.2987 49.0033ZM54.7318 46.3123L58.3052 45.5597L54.7318 46.3123ZM55.8039 42.5363C63.6493 38.4379 72.573 36.119 82.0493 36.119V28.8153C71.3676 28.8153 61.2864 31.432 52.4222 36.0627L55.8039 42.5363ZM82.0493 36.119C91.5252 36.119 100.449 38.4377 108.294 42.5359L111.676 36.0624C102.811 31.4318 92.7305 28.8153 82.0493 28.8153V36.119ZM112.939 47.0649C113.49 44.4511 113.718 41.8056 113.635 39.1834L106.335 39.4147C106.4 41.4588 106.222 43.5212 105.792 45.5597L112.939 47.0649ZM112.372 49.756L112.939 47.0649L105.792 45.5597L105.226 48.2507L112.372 49.756ZM96.3854 70.8421C104.598 66.5564 110.463 58.8211 112.372 49.756L105.226 48.2507C103.766 55.1791 99.2836 61.0914 93.0065 64.3671L96.3854 70.8421ZM67.7125 70.8421C76.6954 75.5298 87.4025 75.5298 96.3854 70.8421L93.0065 64.3671C86.1408 67.9499 77.9571 67.9499 71.0913 64.3671L67.7125 70.8421ZM51.7252 49.756C53.6346 58.8211 59.4996 66.5564 67.7125 70.8421L71.0913 64.3671C64.814 61.0914 60.3314 55.1791 58.872 48.2507L51.7252 49.756ZM51.1585 47.0649L51.7252 49.756L58.872 48.2507L58.3052 45.5597L51.1585 47.0649ZM50.4632 39.1837C50.3801 41.8059 50.6079 44.4513 51.1585 47.0649L58.3052 45.5597C57.876 43.5214 57.6983 41.459 57.7631 39.4151L50.4632 39.1837Z" fill="#2F1160"/>
<path fill-rule="evenodd" clip-rule="evenodd" d="M57.2408 79.026C57.1618 79.0552 57.0827 79.0848 57.0037 79.1144L54.533 80.0403C42.0895 84.7042 33.845 96.5988 33.845 109.888C33.845 114.325 37.442 117.922 41.879 117.922H122.219C126.656 117.922 130.253 114.325 130.253 109.888C130.253 96.5988 122.008 84.7042 109.565 80.0403L107.094 79.1144C107.015 79.0848 106.936 79.0552 106.857 79.026L92.8363 90.8974C86.6105 96.1686 77.4872 96.1686 71.2614 90.8974L57.2408 79.026Z" fill="#EFF3FB"/>
<path d="M58.7784 16.2091C70.2408 0.353636 93.8567 0.353636 105.319 16.2091L122.161 39.5055C128.716 48.5734 127.184 61.1597 118.645 68.39L92.5131 90.5158C86.4738 95.6292 77.6237 95.6292 71.5844 90.5158L45.4528 68.39C36.9134 61.1597 35.3813 48.5734 41.9366 39.5055L58.7784 16.2091Z" fill="#EFF3FB" stroke="black"/>
<path fill-rule="evenodd" clip-rule="evenodd" d="M104.994 17.9413C93.3322 1.80976 69.3051 1.80976 57.6431 17.9413L45.5656 34.6477C42.3184 39.1391 41.0104 44.4742 41.516 49.6229C52.1466 40.3071 66.0731 34.6605 81.3187 34.6605C96.564 34.6605 110.491 40.3071 121.121 49.6229C121.627 44.4742 120.319 39.1391 117.072 34.6477L104.994 17.9413Z" fill="#EFF3FB"/>
<path fill-rule="evenodd" clip-rule="evenodd" d="M54.7569 40.7951C62.7735 36.8648 71.7885 34.6582 81.3189 34.6582C91.4322 34.6582 100.965 37.1431 109.341 41.5355C109.315 43.3939 109.107 45.2598 108.712 47.1074L108.263 49.2067C106.58 57.0729 101.453 63.7674 94.2979 67.443C86.6094 71.3924 77.4885 71.3924 69.8001 67.443C62.6448 63.7674 57.5182 57.0729 55.8349 49.2067L55.3857 47.1074C54.9378 45.0144 54.7309 42.8976 54.7569 40.7951Z" fill="#BBB6C3"/>
<path d="M42.6064 89.1067L42.5786 89.1374L42.5622 89.1755C40.0921 94.9104 37.7178 99.9281 35.3257 103.987C32.9317 108.049 30.5309 111.132 28.0154 113.015C25.5098 114.89 22.8973 115.572 20.0473 114.851C17.1807 114.127 14.0386 111.975 10.5101 108.1C3.49849 100.399 2.31341 89.1532 7.27555 80.1425C12.23 71.1458 23.3422 64.3355 41.0094 65.5846C44.4253 66.2282 49.6895 67.7155 54.513 70.7856C59.3218 73.8464 63.6829 78.473 65.354 85.4023C65.2649 85.3548 65.1538 85.2878 65.0176 85.2013C64.8927 85.1219 64.7538 85.0308 64.5987 84.9289C64.5144 84.8736 64.4254 84.8151 64.3312 84.7537C63.2686 84.0608 61.6381 83.0494 59.5562 82.4333C57.471 81.8162 54.934 81.596 52.0615 82.4813C49.1907 83.3661 46.0037 85.3491 42.6064 89.1067Z" fill="#EFF3FB" stroke="black" stroke-width="0.5"/>
<path d="M101.286 47.1231C100.438 46.5297 99.4314 46.0589 98.3238 45.7378C97.2162 45.4166 96.029 45.2513 94.8301 45.2513C93.6312 45.2513 92.444 45.4166 91.3364 45.7378C90.2288 46.0589 89.2224 46.5297 88.3746 47.1231" stroke="#EFF3FB" stroke-width="4" stroke-linecap="round" stroke-linejoin="round"/>
<path d="M76.5022 46.6774C75.6121 46.2253 74.5553 45.8667 73.3923 45.622C72.2292 45.3773 70.9827 45.2513 69.7239 45.2513C68.4651 45.2513 67.2186 45.3773 66.0555 45.622C64.8926 45.8667 63.8357 46.2253 62.9456 46.6774" stroke="#EFF3FB" stroke-width="4" stroke-linecap="round" stroke-linejoin="round"/>
</g>
<defs>
<filter id="filter0_d" x="0" y="0" width="139" height="131.766" filterUnits="userSpaceOnUse" color-interpolation-filters="sRGB">
<feFlood flood-opacity="0" result="BackgroundImageFix"/>
<feColorMatrix in="SourceAlpha" type="matrix" values="0 0 0 0 0 0 0 0 0 0 0 0 0 0 0 0 0 0 127 0"/>
<feOffset dy="4"/>
<feGaussianBlur stdDeviation="2"/>
<feColorMatrix type="matrix" values="0 0 0 0 0 0 0 0 0 0 0 0 0 0 0 0 0 0 0.25 0"/>
<feBlend mode="normal" in2="BackgroundImageFix" result="effect1_dropShadow"/>
<feBlend mode="normal" in="SourceGraphic" in2="effect1_dropShadow" result="shape"/>
</filter>
</defs>
</svg>
